<svg width="1920" height="1043" viewBox="0 0 1920 1043" fill="none" xmlns="http://www.w3.org/2000/svg">
<path d="M2277.66 4.21116C2271.89 -1.02675 2243.01 7.20895 2173.64 82.0551C2086.93 175.613 2205.38 329.837 2045.63 413.194C1885.87 496.552 1776.05 198.588 1568.67 242.155C1361.3 285.721 1440.72 515.919 1301.59 559.706C1162.45 603.492 1041.41 436.121 856.656 508.01C671.906 579.899 749.711 859.584 600.523 924.471C451.334 989.358 198.46 744.147 -22.3682 820.409" stroke="#5360FE" stroke-width="2"/>
<path d="M2582.57 124.432C2576.89 118.675 2544.22 124.193 2459 192.321C2352.47 277.482 2463.45 442.211 2278.08 510.403C2092.72 578.596 2008.82 271.423 1776.12 295.526C1543.43 319.628 1602.31 556.435 1444.4 587.113C1286.5 617.791 1174.29 439.718 962.937 494.154C751.58 548.589 802.621 834.563 631.108 885.332C459.596 936.101 212.396 668.178 -39.0519 723.611" stroke="#6CE2F8" stroke-width="3"/>
<circle cx="0.000541687" cy="188.543" r="38.7202" fill="#5360FE"/>
<circle cx="160.016" cy="735.808" r="23.5806" fill="#04D7CD"/>
<circle cx="727.838" cy="804.889" r="12.8707" fill="#04D7CD"/>
<circle cx="925.442" cy="585.275" r="12.8707" fill="#04D7CD"/>
<circle cx="1799.54" cy="191.539" r="41.7156" fill="#5360FE"/>
</svg>
